<?xml version="1.0" encoding="UTF-8"?>
<svg version="1.1" xmlns="http://www.w3.org/2000/svg" width="1920" height="1080">
<path d="M0 0 C633.6 0 1267.2 0 1920 0 C1920 356.4 1920 712.8 1920 1080 C1286.4 1080 652.8 1080 0 1080 C0 723.6 0 367.2 0 0 Z " fill="#0054AF" transform="translate(0,0)"/>
<path d="M0 0 C0 303.93 0 607.86 0 921 C-633.6 921 -1267.2 921 -1920 921 C-1920 845.76 -1920 770.52 -1920 693 C-1913.54434849 693.64556515 -1907.37969808 694.37482482 -1901.05078125 695.6015625 C-1899.32292185 695.92713615 -1897.59497157 696.25222779 -1895.86694336 696.5769043 C-1894.96426727 696.74765472 -1894.06159119 696.91840515 -1893.13156128 697.09432983 C-1827.08537732 709.52709945 -1760.20001414 717.03657738 -1693.0579834 719.91143799 C-1691.07922327 719.99659075 -1689.10064143 720.08585617 -1687.12207031 720.17529297 C-1583.47207642 724.6987387 -1479.20992084 716.63054768 -1092.26879883 617.86932373 C-1090.18083389 617.06928917 -1088.0916324 616.27259419 -1086.00195312 615.47705078 C-1077.96472254 612.40712428 -1069.97032122 609.23934983 -1062 606 C-1061.287229 605.7107666 -1060.57445801 605.4215332 -1059.84008789 605.12353516 C-1020.01661955 588.95014912 -980.72588195 571.64963701 -942 553 C-941.25129639 552.63972717 -940.50259277 552.27945435 -939.73120117 551.90826416 C-914.28987864 539.66176984 -888.91421406 527.29333749 -864 514 C-862.98518555 513.46036621 -861.97037109 512.92073242 -860.92480469 512.36474609 C-834.50138078 498.31048032 -808.31159871 483.86737201 -782.37158203 468.93945312 C-779.11321408 467.06512474 -775.85183744 465.1961343 -772.58984375 463.328125 C-749.05593862 449.82865947 -725.6925302 436.0381102 -702.68017578 421.66601562 C-698.60161737 419.13075578 -694.50509139 416.62496845 -690.41064453 414.11547852 C-678.42398089 406.76562766 -666.52213871 399.29532873 -654.68115234 391.71337891 C-651.97480116 389.98389679 -649.26365248 388.26220303 -646.55078125 386.54296875 C-633.96084479 378.56275113 -621.4422574 370.47987748 -608.9810791 362.30010986 C-606.7817743 360.85678644 -604.5817965 359.41449163 -602.38183594 357.97216797 C-574.77309015 339.8654839 -547.32718372 321.52863622 -520 303 C-518.65365119 302.0875572 -517.30729736 301.17512181 -515.9609375 300.26269531 C-504.90867365 292.77058478 -493.87791031 285.24765144 -482.8828125 277.671875 C-478.42895727 274.60422743 -473.9643802 271.55230106 -469.5 268.5 C-460.99023583 262.68081674 -452.49256118 256.84425117 -444 251 C-441.39602927 249.20804835 -438.79187983 247.41635703 -436.1875 245.625 C-435.52991699 245.17261963 -434.87233398 244.72023926 -434.19482422 244.25415039 C-430.65990159 241.8237311 -427.12148507 239.39857258 -423.578125 236.98046875 C-422.0312011 235.92455081 -420.48432718 234.86855964 -418.9375 233.8125 C-418.14907715 233.27423584 -417.3606543 232.73597168 -416.54833984 232.18139648 C-411.24073118 228.55101758 -405.96041508 224.88336687 -400.69018555 221.19897461 C-390.73876171 214.24302475 -380.70167348 207.43771468 -370.57958984 200.73266602 C-364.01862129 196.37610103 -357.53170357 191.93422519 -351.14111328 187.33105469 C-346.30619369 183.86312375 -341.36593726 180.5613071 -336.40971375 177.27050781 C-330.85196765 173.57705489 -325.321631 169.84414628 -319.796875 166.1015625 C-317.97268351 164.86714721 -316.14846439 163.63277276 -314.32421875 162.3984375 C-311.5421574 160.51575154 -308.76067258 158.63224177 -305.98095703 156.74609375 C-294.8269748 149.17978822 -283.60022654 141.77390496 -272.17578125 134.62207031 C-266.94173872 131.34520934 -261.78092801 127.96051593 -256.625 124.5625 C-246.78842202 118.11795941 -236.84270119 111.87467569 -226.81640625 105.73046875 C-223.78901719 103.87036701 -220.76909171 101.99853671 -217.75 100.125 C-198.24292625 88.03666502 -178.53106176 76.32071372 -158.39355469 65.31005859 C-156.71033423 64.38878554 -155.02884555 63.46434483 -153.34863281 62.53759766 C-39.941341 0 -39.941341 0 0 0 Z " fill="#111111" transform="translate(1920,159)"/>
</svg>
